Coordinates
version=1
nRows=11
nColumns=40
inDegrees=yes

Units are S.I. units (second, meters, Newtons, ...)
If the header above contains a line with 'inDegrees', this indicates whether rotational values are in degrees (yes) or radians (no).

endheader
time	pelvis_tilt	pelvis_list	pelvis_rotation	pelvis_tx	pelvis_ty	pelvis_tz	hip_flexion_r	hip_adduction_r	hip_rotation_r	knee_angle_r	knee_angle_r_beta	ankle_angle_r	subtalar_angle_r	mtp_angle_r	hip_flexion_l	hip_adduction_l	hip_rotation_l	knee_angle_l	knee_angle_l_beta	ankle_angle_l	subtalar_angle_l	mtp_angle_l	lumbar_extension	lumbar_bending	lumbar_rotation	arm_flex_r	arm_add_r	arm_rot_r	elbow_flex_r	pro_sup_r	wrist_flex_r	wrist_dev_r	arm_flex_l	arm_add_l	arm_rot_l	elbow_flex_l	pro_sup_l	wrist_flex_l	wrist_dev_l
      0.72000000	     -0.04125740	     -2.51218839	     -8.02488674	      0.26542518	      0.89989063	      0.26546841	    -19.39453027	     -2.85986446	    -15.43580129	     14.41928157	      0.25166394	      6.00308597	     14.00791891	      0.00000000	     26.37301109	    -10.53473782	    -25.33000710	      9.31257952	      0.16253517	     -1.47958618	     12.44317147	      0.00000000	     -2.14718547	      0.62837087	      0.24956250	     43.88622230	    -15.93769558	     43.88622230	     75.36214276	     45.01452556	      0.00000000	      0.00000000	     43.88622230	    -15.93769558	     43.88622230	     75.36214276	     45.01452556	      0.00000000	      0.00000000
      0.72500000	      0.14990046	     -2.18150047	     -8.21867455	      0.27327275	      0.90000335	      0.26491517	    -19.71617584	     -3.40872790	    -14.85426846	     14.85696032	      0.25930287	      5.04267232	     12.88724206	      0.00000000	     25.94758854	    -10.17977909	    -25.26586180	      9.68943669	      0.16911257	     -2.10605157	     11.22319135	      0.00000000	     -2.24076070	      0.15242042	      0.61741555	     43.88976200	    -15.93277422	     43.88976200	     75.35842917	     45.01411546	      0.00000000	      0.00000000	     43.88976200	    -15.93277422	     43.88976200	     75.35842917	     45.01411546	      0.00000000	      0.00000000
      0.73000000	      0.33395900	     -1.88881596	     -8.33672975	      0.28118023	      0.90012745	      0.26412184	    -20.00732149	     -3.94101537	    -14.49918133	     15.32423892	      0.26745842	      3.85725253	     12.09621443	      0.00000000	     25.64546609	     -9.90329139	    -25.30825574	     10.33068175	      0.18030441	     -2.67343599	     10.31400494	      0.00000000	     -2.31922817	     -0.22895746	      0.89679555	     43.89192095	    -15.92977766	     43.89192095	     75.35617729	     45.01387047	      0.00000000	      0.00000000	     43.89192095	    -15.92977766	     43.89192095	     75.35617729	     45.01387047	      0.00000000	      0.00000000
      0.73500000	      0.54118700	     -1.59606318	     -8.45261547	      0.28907589	      0.90041231	      0.26337456	    -20.25401455	     -4.47852354	    -14.16585997	     15.89432545	      0.27740831	      2.57034420	     11.22561587	      0.00000000	     25.33571335	     -9.65744579	    -25.40761107	     11.05157772	      0.19288642	     -3.26058742	      9.43948014	      0.00000000	     -2.45281735	     -0.64454659	      1.17474799	     43.89353364	    -15.92754174	     43.89353364	     75.35450148	     45.01368990	      0.00000000	      0.00000000	     43.89353364	    -15.92754174	     43.89353364	     75.35450148	     45.01368990	      0.00000000	      0.00000000
      0.74000000	      0.79745142	     -1.32159743	     -8.64876872	      0.29695045	      0.90094546	      0.26298254	    -20.57340575	     -4.90970962	    -13.39333669	     16.35209265	      0.28539786	      1.22276851	      9.53725901	      0.00000000	     24.86304762	     -9.41178352	    -25.36728329	     11.57111091	      0.20195398	     -3.92154562	      8.45445387	      0.00000000	     -2.61856462	     -1.02928613	      1.64101492	     43.89866537	    -15.92044068	     43.89866537	     75.34920450	     45.01312890	      0.00000000	      0.00000000	     43.89866537	    -15.92044068	     43.89866537	     75.34920450	     45.01312890	      0.00000000	      0.00000000
      0.74500000	      1.02593936	     -1.00479075	     -8.64214608	      0.30492941	      0.90141859	      0.26193608	    -20.77668633	     -5.45765203	    -13.21198213	     17.01337325	      0.29693938	     -0.34564050	      8.77887125	      0.00000000	     24.60247601	     -9.10748084	    -25.47509547	     12.41900705	      0.21675256	     -4.47157716	      7.72907951	      0.00000000	     -2.75044669	     -1.38712672	      1.88121763	     43.90015511	    -15.91838337	     43.90015511	     75.34767728	     45.01296997	      0.00000000	      0.00000000	     43.90015511	    -15.91838337	     43.90015511	     75.34767728	     45.01296997	      0.00000000	      0.00000000
      0.75000000	      1.25411640	     -0.68216904	     -8.66973950	      0.31286895	      0.90195894	      0.26109852	    -20.89646678	     -5.99532111	    -12.97654134	     17.79989217	      0.31066672	     -1.88291152	      7.63698852	      0.00000000	     24.31569371	     -8.81974927	    -25.54850290	     13.24224457	      0.23112077	     -4.98905387	      7.01642143	      0.00000000	     -2.85554390	     -1.81530920	      2.15869189	     43.90168334	    -15.91627488	     43.90168334	     75.34611561	     45.01280879	      0.00000000	      0.00000000	     43.90168334	    -15.91627488	     43.90168334	     75.34611561	     45.01280879	      0.00000000	      0.00000000
      0.75500000	      1.47629125	     -0.42599459	     -8.59441591	      0.32077203	      0.90259518	      0.25999390	    -21.05771963	     -6.40863999	    -12.57274793	     18.50178325	      0.32291704	     -3.03574729	      7.08925057	      0.00000000	     24.01079157	     -8.52357067	    -25.22109371	     13.98696087	      0.24411852	     -5.39367511	      6.71655120	      0.00000000	     -3.11871919	     -2.15492288	      2.35174648	     43.90227368	    -15.91546092	     43.90227368	     75.34551364	     45.01274698	      0.00000000	      0.00000000	     43.90227368	    -15.91546092	     43.90227368	     75.34551364	     45.01274698	      0.00000000	      0.00000000
      0.76000000	      1.70434181	     -0.02535352	     -8.63925504	      0.32873746	      0.90324133	      0.25935605	    -20.94469126	     -7.04439126	    -12.59317172	     19.63702576	      0.34273075	     -5.27857074	      4.95132922	      0.00000000	     23.75369361	     -8.19990766	    -25.55904288	     14.88291898	      0.25975594	     -5.91667457	      5.70861902	      0.00000000	     -3.07146986	     -2.66740729	      2.70558412	     43.90418099	    -15.91283296	     43.90418099	     75.34357362	     45.01254913	      0.00000000	      0.00000000	     43.90418099	    -15.91283296	     43.90418099	     75.34357362	     45.01254913	      0.00000000	      0.00000000
      0.76500000	      1.96443363	      0.24197676	     -8.58240206	      0.33663273	      0.90411445	      0.25842380	    -20.92522513	     -7.50065125	    -12.43069718	     20.66567089	      0.36068400	     -7.11418261	      3.65432149	      0.00000000	     23.40689760	     -7.91853739	    -25.49268247	     15.65467465	      0.27322562	     -6.24811279	      5.12178156	      0.00000000	     -3.25330430	     -3.01270963	      2.93807249	     43.90557354	    -15.91091606	     43.90557354	     75.34216172	     45.01240631	      0.00000000	      0.00000000	     43.90557354	    -15.91091606	     43.90557354	     75.34216172	     45.01240631	      0.00000000	      0.00000000
      0.77000000	      2.15942553	      0.59561648	     -8.52798215	      0.34454938	      0.90481467	      0.25752418	    -20.72551365	     -8.06059707	    -12.39971235	     21.86205524	      0.38156485	     -9.13848974	      1.86657842	      0.00000000	     23.13255003	     -7.54549830	    -25.41182449	     16.42832870	      0.28672843	     -6.55019584	      4.48283892	      0.00000000	     -3.24794190	     -3.29632396	      3.15072152	     43.90741537	    -15.90838320	     43.90741537	     75.34030061	     45.01221969	      0.00000000	      0.00000000	     43.90741537	    -15.90838320	     43.90741537	     75.34030061	     45.01221969	      0.00000000	      0.00000000
